<?xml version="1.0" encoding="UTF-8"?>
<svg version="1.1" xmlns="http://www.w3.org/2000/svg" width="512" height="512">
<path d="M0 0 C8.3875644 6.11914131 13.34828427 13.59403714 16.46484375 23.45703125 C16.46484375 24.11703125 16.46484375 24.77703125 16.46484375 25.45703125 C17.05007813 25.58078125 17.6353125 25.70453125 18.23828125 25.83203125 C45.55397266 32.39435952 72.49156794 49.14702855 93.46484375 67.45703125 C93.97611816 67.90127441 94.48739258 68.34551758 95.01416016 68.80322266 C125.3380071 95.34000255 145.2175437 132.9175707 153.71484375 172.08203125 C153.86598633 172.77224365 154.01712891 173.46245605 154.17285156 174.17358398 C157.09688342 188.60397821 157.83887164 203.02615772 157.77734375 217.70703125 C157.77618561 218.56889038 157.77502747 219.43074951 157.77383423 220.31872559 C157.61756737 279.5527374 157.61756737 279.5527374 138.6171875 299.46484375 C129.39355974 308.00213987 117.57274615 314.5092062 104.76977539 314.61474609 C103.41795921 314.63013931 103.41795921 314.63013931 102.03883362 314.64584351 C101.07726852 314.65314484 100.11570343 314.66044617 99.125 314.66796875 C97.07225755 314.69602973 95.01952327 314.72469414 92.96679688 314.75390625 C89.74324712 314.79518656 86.51985135 314.83209239 83.29614258 314.85839844 C80.17627843 314.88603949 77.05709923 314.93189941 73.9375 314.98046875 C72.97795914 314.98372162 72.01841827 314.98697449 71.02980042 314.99032593 C64.58303883 315.10842018 60.09760811 315.99427087 55.2265625 320.55078125 C54.54207031 321.34484375 53.85757812 322.13890625 53.15234375 322.95703125 C52.37503906 323.85164063 51.59773438 324.74625 50.796875 325.66796875 C48.61169848 328.28139594 46.47129718 330.92473903 44.33984375 333.58203125 C31.60675708 349.27732905 17.0225592 364.86396552 1.1171875 377.359375 C-1.71875523 379.60223398 -4.42850488 381.96361168 -7.16015625 384.33203125 C-14.48551122 390.4349143 -22.38634045 395.52630389 -30.53515625 400.45703125 C-31.1576123 400.83633789 -31.78006836 401.21564453 -32.42138672 401.60644531 C-51.71890009 413.17132292 -75.00468566 419.98152111 -97.53125 415.84375 C-117.18090857 410.78078462 -134.07971583 396.03438654 -149.73120117 383.74633789 C-163.15683074 373.232465 -177.0449531 363.44807163 -191.53515625 354.45703125 C-192.11652344 354.09270996 -192.69789063 353.72838867 -193.296875 353.35302734 C-205.20745089 345.95750368 -218.20800646 340.43168897 -231.359375 335.6328125 C-232.04475342 335.38055908 -232.73013184 335.12830566 -233.4362793 334.8684082 C-236.1422092 334.33804972 -237.90899742 334.62899608 -240.53515625 335.45703125 C-242.39737607 336.83688288 -242.39737607 336.83688288 -243.99609375 338.66796875 C-244.62459229 339.33054687 -245.25309082 339.993125 -245.90063477 340.67578125 C-246.56377686 341.38734375 -247.22691895 342.09890625 -247.91015625 342.83203125 C-263.4016703 358.83797108 -282.89262814 373.48673005 -305.97265625 373.89453125 C-318.9881312 373.79293728 -330.2324031 369.17065473 -339.859375 360.3203125 C-348.76121731 350.89192868 -351.04329413 341.20093705 -350.8125 328.57421875 C-350.17738604 314.79129785 -341.18404101 304.86197999 -332.1953125 295.296875 C-330.09205843 293.0515509 -328.04423457 290.78562564 -326.03515625 288.45703125 C-321.77569575 283.5485101 -317.35879314 278.78431433 -312.95703125 274.00390625 C-311.60487595 272.53288015 -310.25738656 271.0575692 -308.91015625 269.58203125 C-299.79921667 259.60338314 -290.54653775 249.75802521 -281.265625 239.9375 C-280.55881592 239.18879639 -279.85200684 238.44009277 -279.1237793 237.66870117 C-277.77630027 236.24183823 -276.42759427 234.81613253 -275.07739258 233.3918457 C-273.83194288 232.0728782 -272.59372328 230.74704136 -271.36328125 229.4140625 C-270.13004498 228.09386726 -268.86846042 226.79966916 -267.58203125 225.53125 C-262.68786466 220.48540469 -261.25449247 216.38383092 -260.53515625 209.45703125 C-260.42880859 208.56516113 -260.32246094 207.67329102 -260.21289062 206.75439453 C-259.99682654 204.85853164 -259.79262912 202.96128605 -259.59912109 201.06298828 C-253.97275741 146.52313631 -232.099576 91.64545141 -189.16503906 55.76220703 C-157.83551959 30.67418859 -117.00147094 13.19822945 -76.41796875 13.47265625 C-74.49126343 13.46540527 -74.49126343 13.46540527 -72.52563477 13.45800781 C-69.95804425 13.45736947 -67.38999977 13.49922149 -64.82397461 13.58886719 C-57.80724214 13.60289292 -57.80724214 13.60289292 -51.8359375 10.28710938 C-49.46472489 7.67770218 -49.46472489 7.67770218 -47.51000977 4.95117188 C-36.44635346 -9.02166936 -14.13542698 -8.60322597 0 0 Z M-31.53515625 13.45703125 C-31.20515625 14.11703125 -30.87515625 14.77703125 -30.53515625 15.45703125 C-27.92058607 16.11775483 -27.92058607 16.11775483 -24.75 16.52734375 C-22.99526367 16.78837891 -22.99526367 16.78837891 -21.20507812 17.0546875 C-19.97337891 17.22871094 -18.74167969 17.40273437 -17.47265625 17.58203125 C-16.23708984 17.76378906 -15.00152344 17.94554687 -13.72851562 18.1328125 C-10.66514191 18.58226501 -7.60078577 19.02327829 -4.53515625 19.45703125 C-9.81158336 14.0658992 -13.40485835 11.3097457 -21.09765625 11.14453125 C-25.05323263 11.16136349 -27.9303515 11.82085405 -31.53515625 13.45703125 Z M-112.66015625 35.70703125 C-113.47669678 35.91755127 -114.2932373 36.12807129 -115.13452148 36.3449707 C-139.6969885 42.9330506 -162.69657291 54.98893051 -181.3046875 72.3828125 C-183.34675944 74.28183212 -185.44967207 76.0554078 -187.59765625 77.83203125 C-192.55878784 82.16554981 -196.50331336 87.27224699 -200.53515625 92.45703125 C-201.26734375 93.37355469 -201.99953125 94.29007813 -202.75390625 95.234375 C-226.42021399 125.60891434 -240.0161478 165.20019832 -242.53515625 203.45703125 C-241.78886963 203.14459473 -241.04258301 202.8321582 -240.27368164 202.51025391 C-217.40678403 193.71576373 -183.05832276 196.3772322 -159.53515625 201.45703125 C-158.13861816 201.75504639 -158.13861816 201.75504639 -156.71386719 202.05908203 C-129.18614116 208.10539895 -103.66046058 218.49847342 -78.67236328 231.35742188 C-77.18027595 232.12511223 -75.6863051 232.88914794 -74.19091797 233.65039062 C-63.89536937 238.89678908 -53.80055224 244.39778675 -43.84765625 250.26953125 C-25.99810204 260.77983384 -7.79625297 270.48759096 10.83984375 279.51953125 C11.48615753 279.8334079 12.13247131 280.14728455 12.79837036 280.47067261 C20.12070319 284.01741113 27.46973266 287.37495276 35.06103516 290.31420898 C37.43680689 291.44370193 38.82174065 292.42228164 40.46484375 294.45703125 C41.17624593 297.91639872 41.0497979 301.28712294 39.46484375 304.45703125 C36.12767759 306.12561433 33.06286176 306.01041384 29.46484375 305.45703125 C24.78098668 303.83382989 20.32151683 301.75102925 15.83984375 299.64453125 C14.5412144 299.04608983 13.24221859 298.44844305 11.94287109 297.8515625 C8.10427414 296.07964112 4.28216018 294.27427162 0.46484375 292.45703125 C-0.56705078 291.9667041 -1.59894531 291.47637695 -2.66210938 290.97119141 C-15.95429673 284.59993619 -28.78059589 277.48852509 -41.5625 270.15722656 C-50.84434573 264.84852307 -60.18685775 259.64752336 -69.53515625 254.45703125 C-70.60169434 253.86212891 -71.66823242 253.26722656 -72.76708984 252.65429688 C-110.90641256 231.44349061 -152.0152418 213.93585515 -196.36914062 214.19628906 C-198.53413876 214.2070262 -200.69830764 214.19630588 -202.86328125 214.18359375 C-211.15627998 214.17637357 -219.14044888 214.74884405 -227.33886719 216.01000977 C-232.52452874 216.73525773 -237.50840239 217.13261587 -242.53515625 215.45703125 C-242.86515625 214.79703125 -243.19515625 214.13703125 -243.53515625 213.45703125 C-243.69371094 214.14667969 -243.85226563 214.83632813 -244.015625 215.546875 C-246.96029268 227.40689013 -251.96532873 234.29122609 -260.609375 242.60546875 C-262.94412296 244.85341483 -265.1210871 247.17383402 -267.22265625 249.64453125 C-270.40129691 253.38001407 -273.84962072 256.78757078 -277.33984375 260.23046875 C-279.97522368 262.90336299 -282.41282114 265.71071428 -284.85546875 268.55859375 C-286.51720201 270.43673878 -288.2464115 272.20008641 -290.03515625 273.95703125 C-292.32841661 276.21501068 -294.49943653 278.51699629 -296.59765625 280.95703125 C-300.13351235 285.06215217 -303.82874132 289.00674776 -307.53515625 292.95703125 C-312.29866218 298.04323429 -317.04780121 303.12300545 -321.53515625 308.45703125 C-322.30859375 309.37484375 -323.08203125 310.29265625 -323.87890625 311.23828125 C-328.93276989 316.8892165 -328.93276989 316.8892165 -332.53515625 323.45703125 C-332.04015625 324.94203125 -332.04015625 324.94203125 -331.53515625 326.45703125 C-331.20515625 325.46703125 -330.87515625 324.47703125 -330.53515625 323.45703125 C-328.75 322.44921875 -328.75 322.44921875 -326.53515625 321.45703125 C-325.05374918 320.50216482 -323.57477028 319.54352537 -322.09765625 318.58203125 C-301.57587285 306.14735064 -271.17456541 308.18886014 -248.53515625 313.45703125 C-247.6755127 313.65570801 -246.81586914 313.85438477 -245.93017578 314.05908203 C-216.02979838 321.18584579 -188.52198516 334.64973986 -163.53515625 352.45703125 C-162.78153809 352.98828613 -162.02791992 353.51954102 -161.25146484 354.06689453 C-152.88023122 359.97465886 -144.67713643 366.05602811 -136.65356445 372.42724609 C-108.82887599 394.71063907 -108.82887599 394.71063907 -74.53515625 399.45703125 C-45.57859583 394.50393539 -22.52703708 375.76526293 -1.53515625 356.45703125 C0.1310863 354.97738684 1.79776077 353.49822869 3.46484375 352.01953125 C10.62010255 345.57193541 17.43144782 338.82787919 23.6953125 331.5078125 C25.70270398 329.18136542 27.76951013 326.91510439 29.83984375 324.64453125 C33.07589567 321.07219455 36.14201927 317.40870169 39.15234375 313.64453125 C45.43051606 305.93258949 52.36275021 300.01265648 62.46484375 298.45703125 C65.77940279 298.30369506 69.09247043 298.29620202 72.41015625 298.28125 C74.39454173 298.25804051 76.37891675 298.23392273 78.36328125 298.20898438 C81.47012226 298.17400183 84.5765805 298.14458882 87.68359375 298.13110352 C102.93067523 298.0520968 116.00214795 297.8303493 127.46484375 286.45703125 C134.00101231 278.37621017 136.79924808 270.37047217 138.08984375 260.20703125 C138.21101563 259.32917969 138.3321875 258.45132813 138.45703125 257.546875 C138.81991258 254.85287553 139.14877114 252.15689995 139.46484375 249.45703125 C139.56345703 248.65700684 139.66207031 247.85698242 139.76367188 247.03271484 C142.22038174 224.36117108 142.59401191 198.72029396 137.46484375 176.45703125 C137.26616699 175.5767627 137.06749023 174.69649414 136.86279297 173.78955078 C130.11792932 144.8447389 116.84890219 118.0166351 97.46484375 95.45703125 C96.70945312 94.57789063 95.9540625 93.69875 95.17578125 92.79296875 C90.58823604 87.57483314 85.86659662 82.82500038 80.46484375 78.45703125 C79.5315625 77.69777344 78.59828125 76.93851563 77.63671875 76.15625 C69.34960187 69.53855547 60.59865981 63.83319312 51.46484375 58.45703125 C50.87010254 58.10398926 50.27536133 57.75094727 49.66259766 57.38720703 C20.43813807 40.2624115 -16.02428398 30.43174434 -49.8984375 30.25390625 C-50.77050339 30.24820618 -51.64256927 30.2425061 -52.5410614 30.2366333 C-54.38063367 30.22724339 -56.2202223 30.22067344 -58.05981445 30.21679688 C-60.80256647 30.2071892 -63.54453562 30.17614878 -66.28710938 30.14453125 C-82.00076925 30.05014536 -97.42408913 31.73828842 -112.66015625 35.70703125 Z M-333.53515625 326.45703125 C-332.53515625 328.45703125 -332.53515625 328.45703125 -332.53515625 328.45703125 Z M-319.66015625 336.83203125 C-322.53515625 338.45703125 -322.53515625 338.45703125 -325.72265625 338.39453125 C-328.57628043 337.44332319 -329.69144462 336.76167078 -331.53515625 334.45703125 C-332.19515625 333.79703125 -332.85515625 333.13703125 -333.53515625 332.45703125 C-333.26572643 338.51920223 -332.64539026 342.71445354 -328.53515625 347.45703125 C-320.4535206 354.76813401 -313.06687159 357.15692433 -302.1796875 356.85546875 C-284.43365531 354.91538806 -270.78285691 341.29783156 -258.53515625 329.45703125 C-265.10111601 325.07972475 -274.03728902 326.24061216 -281.66015625 326.20703125 C-282.80742187 326.18640625 -283.9546875 326.16578125 -285.13671875 326.14453125 C-298.70287845 326.08342242 -308.92305483 328.67183417 -319.66015625 336.83203125 Z " fill="#909090" transform="translate(352.53515625,50.54296875)"/>
</svg>
